<svg version="1.1" xmlns="http://www.w3.org/2000/svg" viewBox="0 0 819.4453125 264.67578125" width="2458.3359375" height="794.02734375">
  <!-- svg-source:excalidraw -->
  
  <defs>
    <style>
      @font-face {
        font-family: "Virgil";
        src: url("https://excalidraw.com/Virgil.woff2");
      }
      @font-face {
        font-family: "Cascadia";
        src: url("https://excalidraw.com/Cascadia.woff2");
      }
    </style>
  </defs>
  <rect x="0" y="0" width="819.4453125" height="264.67578125" fill="#ffffff"></rect><g stroke-linecap="round" transform="translate(10 181.578125) rotate(0 54.5 24)"><path d="M0 0 C0 0, 0 0, 0 0 M0 0 C0 0, 0 0, 0 0 M0.12 5.83 C1.94 5.24, 2.75 3.06, 5.27 0.13 M-0.4 6.37 C1.8 3.96, 3.41 2.18, 5.31 0.05 M-1.28 13.15 C3.18 8.44, 6.67 4.14, 10.57 -0.42 M0.5 11.6 C2.83 7.63, 6.88 3.71, 10.07 -0.42 M-0.86 20.16 C2.64 13.86, 8.67 11.27, 15.49 -0.53 M-0.93 18.56 C3.59 13.33, 8.78 7.48, 14.65 1.32 M-1.21 23.21 C3.7 18.49, 10.89 13.76, 22.99 1.38 M-0.28 24.18 C4.82 18.48, 9.9 12.83, 21.15 0.56 M1.68 28.99 C6.77 21.02, 12.06 13.55, 27.11 -0.67 M-0.76 29.61 C6.14 24.63, 9.98 17.17, 25.45 0.71 M-1.14 36.56 C11.52 26.11, 21.98 11.86, 30.13 1.35 M0.48 36.09 C9.29 24.49, 19.73 12.96, 32.37 -1 M1.48 43.47 C8.49 34.72, 17.33 24.75, 38.77 1.06 M-0.76 42.87 C13.45 28.84, 25.15 13.97, 36.12 1.15 M0.91 48.82 C9.08 37.94, 18.41 25.27, 40.85 -0.84 M0.74 47.41 C8.25 38.51, 18.66 27.14, 42.31 -0.96 M6.79 49.25 C22.19 31.45, 35.88 13.26, 45.52 -0.97 M4.98 47.59 C20.74 31.1, 36.37 12.46, 48.45 -0.52 M10.65 48.41 C23.37 33.72, 39.37 17.74, 51.9 0.27 M10.72 48.24 C20.66 36.72, 31.69 23.06, 54.03 -0.14 M16.49 47.63 C25.56 39.63, 32.76 29.6, 57.28 -1.73 M15.45 48.02 C26.14 37.13, 35.2 26.75, 59.02 0.94 M22.25 47.55 C34.39 34.85, 47.03 16.13, 61.84 1.77 M21.13 48.19 C33.37 34.07, 45.22 21.46, 63.92 0.53 M26.01 49.64 C37.33 36.93, 48.96 23.84, 68.8 0.45 M27.74 48.32 C38.27 35.68, 47.7 24.35, 68.27 0.21 M32.61 47.8 C42.37 34.53, 51.39 25.95, 73.11 -1.56 M32.32 49 C40.97 38.07, 49.6 27.6, 74.7 -0.95 M35.91 49.9 C50.21 33.54, 61.01 22.25, 77.66 1.92 M36.5 47.58 C48.01 35.61, 60.39 22.72, 79.45 0.37 M41.44 49.36 C58.8 29.29, 72.45 11.81, 85.96 0.67 M43.49 48.84 C54 35.54, 65.04 21.99, 84.41 -0.63 M48.58 46.71 C60.44 37.32, 69.81 22.18, 90.31 -0.34 M47.7 48.78 C62.46 33.18, 75.79 17.11, 89.63 -0.05 M53.29 49.12 C66.96 34.33, 79 20.22, 96.51 0.55 M53.66 47.28 C68.15 32.06, 81.36 15.73, 95.41 0.34 M58.25 48.01 C66.69 37.06, 75.03 29.69, 100.03 1.32 M59.66 47.84 C71.42 33.91, 83.88 20.59, 100.74 -0.12 M62.92 47.34 C75.62 36.63, 85.03 25.69, 106.7 -2.21 M64.02 49.07 C72.86 37.9, 83.35 25.69, 105.41 -1.29 M69 49.4 C79.54 39.4, 88.54 27.89, 112.27 -0.03 M70 48.6 C82.6 32.97, 96.14 16.5, 109.85 1.27 M75.9 46.69 C86.85 35.4, 101.3 20.41, 111.78 5.34 M73.56 48.12 C83.31 38.84, 89.67 29.64, 109.88 7.75 M80.76 48.15 C88.77 38.31, 98.33 26.89, 110.19 13.88 M80.71 47.8 C90.7 36.11, 104.12 21.47, 109.69 14.24 M86.65 46.78 C91.31 39.37, 97.53 34.45, 110.01 21.21 M84.12 49.04 C93.43 38.82, 101.2 29.55, 110.8 20.04 M91.27 49.16 C95.67 39.08, 103.32 33.58, 110.73 25.85 M91.07 48.14 C95.64 42.47, 101.8 35.55, 109.81 26.14 M95.12 47.08 C100.14 44.61, 104.34 40.7, 108.8 31.56 M96.04 49.08 C101.87 42.48, 106.96 35.29, 109.78 31.6 M101.87 47.37 C103.64 43.74, 105.6 40.92, 110.04 38.52 M100.85 48.91 C104.17 45.59, 106.38 42.08, 110.65 38.14 M106.75 48.93 C107.89 47.07, 108.85 45.75, 109.73 43.88 M106.27 48.39 C106.84 47.82, 107.77 46.85, 109.83 43.92" stroke="#fa5252" stroke-width="0.5" fill="none"></path><path d="M-1.53 1.11 C22.44 1.24, 44.96 -1.14, 110.45 -0.97 M0.94 -0.1 C34.54 -1.61, 69.83 -0.69, 109.1 0.76 M110.08 -0.48 C108.18 12.2, 108.53 22.08, 108.18 48.88 M108.26 0.08 C109.49 12.24, 109.47 26.71, 108.54 48.11 M110.44 47.33 C84.19 46.6, 56.43 49.5, 0.07 46.95 M108.02 48.76 C79.79 49.17, 48.93 49.49, 0.81 47.02 M1.37 46.75 C-0.71 33.45, 2.22 20.73, -0.02 0.79 M-0.44 48.09 C-0.29 29.88, -1.11 11.32, -0.6 0.11" stroke="#000000" stroke-width="1" fill="none"></path></g><g transform="translate(15 191.578125) rotate(0 49.5 14)"><text x="49.5" y="21" font-family="Virgil, Segoe UI Emoji" font-size="20px" fill="#000000" text-anchor="middle" style="white-space: pre;" direction="ltr">消息</text></g><g stroke-linecap="round" transform="translate(338.7578125 10) rotate(0 53.5 26.216796875)"><path d="M0 0 C0 0, 0 0, 0 0 M0 0 C0 0, 0 0, 0 0 M-1.03 6.71 C0.63 5.42, 2.17 3.89, 5.43 -0.3 M-0.64 6.29 C1.03 5.04, 2.6 3.1, 4.78 0.3 M-0.71 12.65 C0.95 8.55, 3.12 5.99, 10.35 0.72 M0.32 12.24 C3.62 8.75, 4.99 5.9, 10.01 -0.11 M-0.68 18.75 C3.4 12.46, 6.24 7.33, 16.02 -1.24 M-0.43 17.81 C5.29 13.96, 8.65 7.79, 16.11 -0.35 M2.19 25.45 C6.82 16.67, 14.67 7.14, 19.94 -1.3 M1.23 24.64 C8.45 14.92, 14.87 6.62, 21.64 -0.33 M-0.84 30.16 C10.71 20.28, 19.49 5.72, 25.64 -0.2 M-0.71 31.16 C7.65 20.11, 17.92 10.66, 26.91 0.05 M1.74 36.99 C10.01 26.22, 20.18 15.62, 30.61 1.07 M0.07 36.71 C7.52 29.62, 14.13 21.33, 31.31 -0.25 M1.23 44.49 C8.53 32.82, 15.82 22.17, 36.71 -1.21 M-0.05 42.72 C9.01 31.11, 18.35 21.87, 36.58 0.4 M-1.58 47.23 C10.78 33.49, 25.24 19.18, 41.05 1.76 M0.09 48.8 C9.41 37.63, 19.9 24, 41.71 -0.88 M2.54 55.07 C13.26 39.61, 29.24 23.66, 46.46 0.71 M1.27 53.53 C14.3 38.86, 24.65 26.24, 48.35 0.41 M4.97 54.75 C15.56 41.65, 26.92 28.32, 52.44 -0.48 M6.63 52.63 C17.37 42.09, 26.98 28.69, 53.72 -1.03 M11.1 54.48 C19.55 43.98, 31.33 32.1, 57.57 0.59 M11.47 53.05 C21.48 42.11, 31.18 32.5, 57.98 -0.46 M19.09 53.96 C26.45 41.22, 38.05 31.17, 62.46 0.12 M17.01 53.5 C27.12 42.27, 36.62 32.1, 63.22 -0.25 M20.38 52.19 C38.46 34.66, 50.43 17.72, 68.2 1.47 M22.8 53.85 C32.4 41.41, 41.62 31.58, 68.75 -0.02 M28.62 52.82 C40.79 38.18, 55.32 23.28, 75.26 -1.59 M28.74 52.93 C38.59 41.96, 47.28 30.54, 74.11 0.15 M32.14 55.41 C43.41 39.76, 57.84 26.44, 77.97 0.46 M33.35 53.43 C45.83 38.56, 60.03 23.22, 78.42 -0.36 M38.82 52.78 C52.92 40.09, 63.04 24.78, 83.44 0.21 M37.79 53.67 C56.51 32.96, 72.12 13.99, 85.31 0.07 M44.61 54.35 C60.81 33.88, 77.2 14.7, 89.99 -1.35 M44.21 54.51 C56.98 36.39, 72.12 20.13, 90.31 -0.81 M50.4 51.35 C60.07 37.15, 75.51 25.23, 94.09 0.43 M49.66 53.17 C64.76 36.29, 79.12 19.01, 95.76 -0.33 M54.51 52.27 C64.89 40.42, 74.78 29.54, 100.82 -0.8 M54.51 54.06 C66.17 41.82, 75.99 28.98, 100.23 1.01 M61.56 52.04 C78.72 33.69, 95.29 11.25, 106.76 0.96 M60.35 52.65 C70.87 40, 83.45 26.38, 105.41 0.33 M62.99 55.46 C74.5 44.78, 84.4 32.51, 108.51 3.56 M64.38 54.28 C76.26 38.86, 89.64 26.72, 109.54 2.51 M69.95 54.4 C81.22 40.83, 92.61 28.3, 108.24 9.05 M69.37 54.03 C80.14 41.02, 90.4 29.79, 108.99 7.97 M73.72 55.23 C85.35 41.84, 99.44 26.12, 108.02 12.47 M75.98 53.59 C87.54 39.6, 98.99 26.12, 109.53 14.07 M82.69 52.03 C89.88 41.39, 99.55 31.75, 108.3 18.91 M80.76 53.01 C90.52 41.64, 100.52 30.49, 108.77 21.67 M86.79 53.95 C93.75 43.48, 105.01 32.22, 108.84 25.36 M86.48 53.65 C95.89 43.06, 105.04 32.49, 110.09 25.5 M90.39 54.52 C95.89 47.01, 105.65 37.52, 108.48 32.26 M92.07 53.97 C97.6 46.73, 103 39.94, 108.34 33.23 M96.79 54.98 C100.86 47.1, 106.87 44.18, 109.41 37.51 M97.05 54.38 C99.57 48.91, 103.89 45.2, 109.09 38.11 M100.9 54.12 C105.25 49.52, 106.34 48.43, 109.52 44.25 M101.06 53.83 C104.76 50.86, 106.82 47.87, 109.21 45.36" stroke="#15aabf" stroke-width="0.5" fill="none"></path><path d="M0.86 0.77 C21.82 -0.89, 45.22 1.01, 107.36 -0.79 M0.4 -0.83 C28.76 -1.31, 56.93 -0.84, 106.74 0.96 M108.09 0.13 C108.13 21.09, 106.15 41.92, 106.99 53.88 M106.47 -0.66 C106.89 12.57, 106.96 23.15, 106.56 51.93 M107.12 53.15 C82.05 51.85, 54.77 54.62, -1.94 53.74 M107.57 51.45 C70.85 53.27, 36.29 53.02, -0.78 52.85 M1.6 51.49 C-0.24 33.81, 0.57 16.04, 1.25 0.31 M-0.7 51.84 C-0.97 33.4, 0.5 15.27, 0.39 0.08" stroke="#000000" stroke-width="1" fill="none"></path></g><g transform="translate(343.7578125 25.216796875) rotate(0 48.5 14)"><text x="48.5" y="21" font-family="Virgil, Segoe UI Emoji" font-size="20px" fill="#000000" text-anchor="middle" style="white-space: pre;" direction="ltr">核心服务</text></g><g stroke-linecap="round" transform="translate(691.4453125 169.44921875) rotate(0 59 24.958984375)"><path d="M0 0 C0 0, 0 0, 0 0 M0 0 C0 0, 0 0, 0 0 M-0.35 6.18 C0.8 5.13, 2.57 3.27, 5.47 0.5 M0.02 6.77 C0.66 4.61, 2.58 3.22, 4.62 0.25 M1.26 13.12 C3.89 9.04, 7.28 4.08, 11.52 0.46 M-0.08 11.29 C3.6 8.23, 5.95 5.03, 10.39 0.62 M-0.97 19.94 C7.19 11.55, 11.95 6.99, 14.26 1.2 M0.4 17.47 C3.71 14.45, 7.5 8.69, 15.8 0.81 M0.24 24.27 C6.09 18.03, 8.87 13.88, 21.74 1.1 M0.63 23.29 C4.82 18.98, 9.84 14.89, 20.9 0.15 M-1.16 30.41 C4.37 24.39, 13.18 15.17, 25.37 -0.64 M-0.66 31.22 C9.07 20.81, 17.52 10.15, 26.81 -0.46 M-0.22 38.11 C11.12 27.52, 17.67 13.7, 32.07 -0.84 M-1.1 37.14 C11.29 23.88, 20.32 11.77, 32.58 0.08 M0.63 42.75 C9.25 32.87, 17.54 24.72, 36.61 1.55 M-0.85 42.05 C11.72 29.05, 22.88 15.86, 36.68 -0.07 M-1.06 49.36 C14.08 34.95, 28.16 20.72, 42.09 1.09 M0.33 49 C11.3 35.3, 21.84 24.02, 42.16 -0.1 M2.09 50.67 C17.77 34.52, 29.95 18.57, 48.08 -0.42 M1.41 53.2 C10.56 42.71, 21.15 31.76, 48.19 0.18 M9.41 51.16 C18.66 39.86, 30.63 23.15, 55.15 1.7 M7.76 50.95 C22.15 35.81, 36.81 18.42, 53.18 -0.07 M13.5 51.02 C20.85 42.31, 32.11 27.95, 56.91 0.74 M13.02 51.62 C22.33 41.04, 32.54 29.21, 58.37 -0.01 M19.43 50.46 C30.63 39.82, 41.03 26.4, 64.64 -1.75 M17.78 50.92 C33.43 35.02, 45.82 19.31, 62.91 0.49 M24.12 52.52 C35.09 38.33, 45.98 25.84, 67.27 1.77 M23.53 51.65 C35.09 38.68, 45.83 25.02, 69.47 -0.42 M30.94 52.66 C42.31 37.98, 55 24.61, 76.01 0.48 M28.82 52.33 C44.84 34.1, 60.38 15.63, 75.34 -1.04 M35.75 50.53 C46.86 40.37, 58.85 24.89, 80.35 -1.1 M33.76 52.84 C43.1 42.25, 51.97 30.45, 80 0.69 M41.48 51.59 C53.78 38.79, 64.36 21.76, 84.7 0.59 M40.19 51.11 C50.11 39.35, 62.11 25.87, 84.21 0.7 M44.21 50.87 C57.08 35.9, 73.64 20.85, 88.37 1.82 M44.24 52.75 C55.78 37.96, 67.21 24.13, 89.66 -0.42 M51.68 50.58 C68.87 30.23, 83.57 9.31, 94.21 -0.75 M50.44 51.71 C65.39 35.7, 78.48 19.95, 96 0.1 M57.38 51.85 C71.87 31.78, 90.02 9.78, 100.6 -0.33 M56.27 51.95 C65.72 40.42, 75.42 27.34, 100.44 0 M59.15 52.4 C75.3 31.91, 91.18 16.35, 106.06 -0.39 M60.33 52.07 C76.77 33.85, 92.61 15.6, 106.89 -0.45 M65.16 50.23 C79.67 34.29, 97.01 17.42, 109.31 -0.9 M66.86 53.02 C76.72 40.89, 85.86 27.82, 111.52 0.26 M72.55 53.31 C84.37 37.65, 97.02 19.98, 117.15 2.04 M71.88 52.68 C86.45 36.22, 98.86 18.12, 117.18 1.24 M77.47 51.25 C89.79 39.12, 101.55 23.65, 121.86 0.45 M75.76 51.57 C92.08 34.99, 107.14 17.88, 120.36 2.41 M80.94 53.78 C89.72 42.48, 101.66 31.13, 121.81 6.64 M80.68 52.26 C96.37 35.88, 113.46 17.88, 120.3 8.62 M86.27 50.62 C98.16 35.83, 114.7 21.06, 120.03 14.84 M86.46 51.23 C93.28 44.43, 102.16 37.19, 121.08 14.31 M90.34 53.49 C97.67 44.02, 106.01 39.52, 121.63 21.71 M91.5 51.82 C102.26 42.52, 110.16 30.68, 119.6 19.89 M99.55 52.5 C107.07 42.9, 115.27 35.7, 121.75 27.49 M97.17 52.62 C102.06 46.55, 106.34 41.11, 121.09 25.98 M101.85 53.85 C106.74 45.92, 112.24 43.54, 121.53 32.48 M103.42 52.14 C107.79 47.11, 114.35 39.02, 119.53 31.74 M107.46 51.57 C110.75 48.34, 116.03 46.46, 119.51 38.86 M107.92 52.36 C111.92 47.8, 114.41 44.37, 120.52 37.84 M112.9 52.65 C116.61 49, 118.9 47.25, 120.3 43.85 M113.45 52.02 C115.93 50.33, 117.12 47.58, 119.67 44.45" stroke="#868e96" stroke-width="0.5" fill="none"></path><path d="M-0.14 -1.65 C34.05 0.88, 67.45 -1, 116.2 1.99 M0.56 0.12 C31.11 -0.69, 63.15 -0.49, 118.58 -0.76 M119.37 -1.04 C118.9 11.05, 117.09 23.88, 116.45 48.25 M117.21 -0.32 C118.43 11.55, 116.99 22.24, 118.76 49.93 M116.22 51.64 C89.48 48.89, 61.25 48.11, -1.77 51.11 M117.61 50.5 C71.86 49.69, 26.48 49.29, -0.37 49.52 M-0.95 50.72 C0.2 35.16, 0.43 25.11, -1.17 -1.36 M0.73 49.88 C0.2 32.48, -0.43 15.23, -0.02 0.77" stroke="#000000" stroke-width="1" fill="none"></path></g><g transform="translate(696.4453125 183.408203125) rotate(0 54 14)"><text x="54" y="21" font-family="Virgil, Segoe UI Emoji" font-size="20px" fill="#000000" text-anchor="middle" style="white-space: pre;" direction="ltr">一般服务</text></g><g stroke-linecap="round"><g transform="translate(124.67968750000006 198.3155620167397) rotate(0 105.02642647892239 -80.18817154083621)"><path d="M0.73 0.29 C35.49 -26.62, 173.54 -133.98, 208.15 -160.67 M-0.35 -0.6 C34.83 -27.47, 175.81 -133.33, 210.41 -159.67" stroke="#000000" stroke-width="1" fill="none"></path></g><g transform="translate(124.67968750000006 198.3155620167397) rotate(0 105.02642647892239 -80.18817154083621)"><path d="M194.58 -135.92 C196.49 -142.28, 202.14 -148.55, 211.35 -158.79 M193.6 -133.93 C199.86 -144, 207.42 -153.98, 209.94 -159.46" stroke="#000000" stroke-width="1" fill="none"></path></g><g transform="translate(124.67968750000006 198.3155620167397) rotate(0 105.02642647892239 -80.18817154083621)"><path d="M182.21 -152.3 C187.46 -154.44, 196.36 -156.43, 211.35 -158.79 M181.23 -150.3 C192.23 -153.92, 204.65 -157.47, 209.94 -159.46" stroke="#000000" stroke-width="1" fill="none"></path></g></g><g transform="translate(161.48828125 91.984375) rotate(0 68 11)"><text x="0" y="18" font-family="Virgil, Segoe UI Emoji" font-size="20px" fill="#000000" text-anchor="start" style="white-space: pre;" direction="ltr">3.执行本地事务</text></g><g stroke-linecap="round"><g transform="translate(125.19921875 192.41264596734254) rotate(0 42.61109176729806 -9.084454443124855)"><path d="M0.77 0.71 C15.11 -2.28, 71.39 -15.57, 85.51 -18.88 M-0.28 0.04 C14.01 -2.67, 70.71 -14.34, 84.94 -17.35" stroke="#000000" stroke-width="1" fill="none"></path></g><g transform="translate(125.19921875 192.41264596734254) rotate(0 42.61109176729806 -9.084454443124855)"><path d="M60.62 -0.34 C66.04 -4.56, 72.05 -9.81, 86.48 -16.49 M59.23 -1.02 C64.23 -5.2, 69.55 -7.21, 85.59 -17.75" stroke="#000000" stroke-width="1" fill="none"></path></g><g transform="translate(125.19921875 192.41264596734254) rotate(0 42.61109176729806 -9.084454443124855)"><path d="M56.44 -20.43 C62.78 -19.56, 69.84 -19.7, 86.48 -16.49 M55.05 -21.11 C61.09 -21.15, 67.26 -19.06, 85.59 -17.75" stroke="#000000" stroke-width="1" fill="none"></path></g></g><g transform="translate(218.46875 153.1328125) rotate(0 45.5 11)"><text x="0" y="18" font-family="Virgil, Segoe UI Emoji" font-size="20px" fill="#000000" text-anchor="start" style="white-space: pre;" direction="ltr">1.开启事务</text></g><g transform="translate(214.8828125 193.7578125) rotate(0 57.5 11)"><text x="0" y="18" font-family="Virgil, Segoe UI Emoji" font-size="20px" fill="#000000" text-anchor="start" style="white-space: pre;" direction="ltr">2.发送半消息</text></g><g transform="translate(216.6796875 232.67578125) rotate(0 58 11)"><text x="0" y="18" font-family="Virgil, Segoe UI Emoji" font-size="20px" fill="#000000" text-anchor="start" style="white-space: pre;" direction="ltr">4.提交或回滚</text></g><g stroke-linecap="round" transform="translate(405.17578125 171.59375) rotate(0 58 25.708984375)"><path d="M0 0 C0 0, 0 0, 0 0 M0 0 C0 0, 0 0, 0 0 M0.42 6.96 C1.18 4.75, 1.63 4.19, 4.67 -0.08 M-0.31 6.23 C1.48 4.82, 2.36 2.75, 5.1 0.35 M0.28 13 C3.95 6.59, 5.86 3.07, 10.18 -0.44 M0.62 12.5 C3.01 8.86, 5.45 5.55, 11.03 -0.62 M-0.01 16.68 C4.9 12.27, 9.67 8.2, 15.79 -0.05 M0.5 17.83 C4.34 14, 8.02 8.28, 15.44 0.42 M0.83 22.57 C5.89 14.54, 15.08 9.05, 22.9 -1.99 M1.08 23.13 C6.92 16.08, 14.83 7.56, 20.39 -0.35 M-0.35 30.49 C6.72 24.92, 9.92 15.49, 26.54 -0.12 M-0.04 30.77 C6.91 22.04, 14.27 13.67, 25.37 0.01 M0.05 35.22 C10.37 24.16, 24.43 9.93, 32.46 -1.96 M0.12 37.32 C9.86 25.21, 18.93 14.53, 32.85 -0.23 M2.05 44.29 C12.98 27.85, 30.06 10.04, 37.44 -1.46 M0.78 41.75 C9.58 30.76, 20.34 20.14, 36.81 1.2 M-2.1 49.55 C11.42 39.21, 18.29 25.3, 42.22 -1.7 M-0.92 48.57 C15.53 31.54, 30.75 14.79, 42.63 0.43 M1.6 51.71 C18.35 33.92, 31.15 17.52, 47.95 0.44 M0.59 52.89 C13.12 38.87, 26.8 23.56, 47.51 0.32 M6.03 50.9 C18.4 38.32, 32.88 22.57, 53.11 -0.43 M6.45 52.5 C22.25 36.96, 36.05 19.62, 52.35 0.23 M12.74 52.82 C25.2 36.72, 39.27 24.56, 57.98 1.12 M12.06 52.54 C26.17 35.95, 40.06 19.56, 58.22 0.94 M18.05 51.69 C32.55 37.27, 43.55 25.66, 65.54 -1.36 M17.24 52.01 C36.49 30.83, 54.38 11.06, 64.16 0.46 M24.3 51.37 C37.71 36.13, 56.32 17.36, 69.93 1.13 M22.34 53.39 C38.21 36.21, 51.48 19.87, 69.71 0.88 M26.7 52.65 C46.06 31.64, 63.78 13.01, 73.38 -1.66 M29.15 53.49 C45.03 34.32, 59.71 16.07, 74.72 0.18 M31.8 54.58 C42.83 39.82, 54.17 29.91, 78.66 0.09 M34.29 53.3 C46.29 38.9, 58.51 24.64, 79.8 -0.84 M40.45 53.75 C56.33 32.38, 72.46 12.77, 85.99 1.55 M38.15 52.81 C54.05 36.99, 67.19 19.48, 84.2 -0.82 M42.21 53.67 C59.51 36.22, 73.94 18.94, 89.5 -1.38 M44.26 52.87 C54.35 41.82, 63.69 30.47, 90.27 1.07 M49.62 52.76 C67.6 32.82, 84.73 11.56, 94.17 1.16 M49.57 52.79 C57.77 42.8, 66.93 31.47, 95.29 -1.04 M55.95 53.93 C66.5 42.16, 76.89 26.72, 100.25 0.38 M55.13 52.42 C72.43 33.65, 89.81 12.89, 99.95 -0.89 M58.93 52.2 C72.68 39.59, 84.45 23.72, 108.21 -1.9 M59.75 53.25 C74.25 35.46, 89.56 18.47, 106.21 -0.23 M64.95 52.66 C80.5 38.33, 91.4 21.35, 111.18 -1.92 M65.29 53.01 C82.6 30.71, 102.36 10.67, 111.69 0.03 M69.62 53.9 C85.81 37.8, 100.06 18.95, 115.21 0.08 M71.05 52.5 C84.66 36.83, 99.11 19.36, 117 0.37 M74.58 53.2 C91.27 32.94, 107.58 16.86, 117.77 5.46 M75.66 53.45 C91.39 33.83, 108.45 16.99, 116.09 5.84 M80.05 53.95 C94.45 36.65, 109.14 23.51, 117.19 12.66 M81.51 53.34 C88.44 44.67, 97.28 34.94, 116.74 12.03 M85.68 50.89 C96.07 42.32, 109.78 28.99, 114.57 20.06 M86.65 53.26 C94.82 43.58, 102.05 36.33, 116.37 19.5 M91.05 53.49 C100.33 43.51, 111.16 32.03, 116.7 25.54 M91.19 52.78 C96.87 46.53, 104.42 39.48, 116 23.88 M96.57 51.16 C102.99 48.97, 105.26 41.34, 115.82 30.09 M97.22 53.72 C102.9 46.12, 109.77 39.55, 115.96 30.92 M103.92 52.68 C104.56 49.49, 109.93 41.87, 117.22 36.53 M103.18 53.08 C107.64 46.46, 113.15 42.06, 116.41 37.87 M108.62 51.87 C109.17 49.89, 113.65 47.44, 115.49 41.76 M107.84 52.78 C110.13 50.17, 112.96 45.86, 116.87 42.66 M113.26 52.98 C114.18 52.31, 114.74 51.03, 116.54 49.77 M112.79 52.98 C113.94 51.68, 114.9 50.31, 116.13 49.32" stroke="#12b886" stroke-width="0.5" fill="none"></path><path d="M0.2 -0.19 C34.55 0.94, 69.27 0.35, 114.47 1.74 M0.11 -0.04 C24.6 -1.15, 50.33 0.38, 115.44 0.72 M115.07 -1.72 C116.02 15.35, 117.12 29.97, 115.2 49.91 M116.58 -0.72 C115.26 20.97, 117.02 41.01, 115.73 52.38 M115.45 51.56 C84 51.23, 53.92 51.13, -1.36 53.4 M116.63 51.27 C82.29 50.39, 46.86 49.53, 0.98 52.2 M0.25 51.83 C0.88 33.17, 2.32 15.99, 0.91 1 M-0.55 51.12 C-0.13 36.66, 0.64 22.91, -0.17 0.47" stroke="#000000" stroke-width="1" fill="none"></path></g><g transform="translate(410.17578125 186.302734375) rotate(0 53 14)"><text x="53" y="21" font-family="Virgil, Segoe UI Emoji" font-size="20px" fill="#000000" text-anchor="middle" style="white-space: pre;" direction="ltr">消息队列</text></g><g stroke-linecap="round"><g transform="translate(318.859375 162.34765625) rotate(0 42.411755550699354 16.23852074827073)"><path d="M-1.05 0.57 C12.81 6.17, 69.53 27.59, 83.69 32.66 M0.59 -0.18 C14.78 5.18, 71.58 25.7, 85.88 31.05" stroke="#000000" stroke-width="1" fill="none"></path></g><g transform="translate(318.859375 162.34765625) rotate(0 42.411755550699354 16.23852074827073)"><path d="M56.83 29.3 C67.78 29.94, 75.26 31.11, 86.53 30.31 M55.09 31.78 C65.18 30.96, 74.06 30.42, 86.59 31.44" stroke="#000000" stroke-width="1" fill="none"></path></g><g transform="translate(318.859375 162.34765625) rotate(0 42.411755550699354 16.23852074827073)"><path d="M63.9 10.03 C72.28 17.22, 77.33 24.99, 86.53 30.31 M62.16 12.52 C70.1 17.41, 76.87 22.63, 86.59 31.44" stroke="#000000" stroke-width="1" fill="none"></path></g></g><g stroke-linecap="round"><g transform="translate(128.82421875 199.46484375) rotate(0 38.14480432014915 1.4798468926549049)"><path d="M0.2 0.89 C13.29 1.17, 64.43 1.33, 77.45 1.43 M-1.16 0.31 C11.84 0.76, 63.15 2.29, 76.31 2.65" stroke="#000000" stroke-width="1" fill="none"></path></g><g transform="translate(128.82421875 199.46484375) rotate(0 38.14480432014915 1.4798468926549049)"><path d="M49.31 11.49 C52.77 10.86, 58.77 8.83, 76.92 3.77 M47.5 11.33 C54.47 9.79, 60.47 8.09, 76.63 2.39" stroke="#000000" stroke-width="1" fill="none"></path></g><g transform="translate(128.82421875 199.46484375) rotate(0 38.14480432014915 1.4798468926549049)"><path d="M49.91 -9.03 C53.2 -5.38, 59.07 -3.15, 76.92 3.77 M48.09 -9.18 C54.78 -6.01, 60.64 -3, 76.63 2.39" stroke="#000000" stroke-width="1" fill="none"></path></g></g><g stroke-linecap="round"><g transform="translate(134.671875 218.1015625) rotate(0 38.980729994373405 13.100481115235084)"><path d="M-0.78 0.82 C11.97 4.96, 63.58 21.94, 76.48 25.99 M1.01 0.21 C14.14 4.47, 65.72 19.66, 78.74 23.99" stroke="#000000" stroke-width="1" fill="none"></path></g><g transform="translate(134.671875 218.1015625) rotate(0 38.980729994373405 13.100481115235084)"><path d="M50.15 24 C58.12 23.99, 65.71 23.7, 80.26 25.09 M48.1 25.07 C57.56 24.38, 64.33 24.96, 79.65 23.41" stroke="#000000" stroke-width="1" fill="none"></path></g><g transform="translate(134.671875 218.1015625) rotate(0 38.980729994373405 13.100481115235084)"><path d="M56.24 4.4 C62.58 10.22, 68.35 15.8, 80.26 25.09 M54.2 5.48 C62.18 10.13, 67.29 16.05, 79.65 23.41" stroke="#000000" stroke-width="1" fill="none"></path></g></g><g stroke-linecap="round"><g transform="translate(343.4609375 206.171875) rotate(0 27.317280771033836 -3.579286705330105)"><path d="M0.12 0.77 C9.56 -0.39, 46.38 -6.75, 55.91 -7.93 M-1.27 0.13 C8.03 -0.83, 45.03 -5.48, 54.74 -6.89" stroke="#000000" stroke-width="1" fill="none"></path></g><g transform="translate(343.4609375 206.171875) rotate(0 27.317280771033836 -3.579286705330105)"><path d="M30.88 5.57 C34.21 4.66, 43.01 -0.41, 53.02 -7.35 M29.78 6.23 C37.14 2.56, 42.98 0.06, 55.22 -7.21" stroke="#000000" stroke-width="1" fill="none"></path></g><g transform="translate(343.4609375 206.171875) rotate(0 27.317280771033836 -3.579286705330105)"><path d="M28.31 -13.67 C32.11 -9.92, 41.53 -10.33, 53.02 -7.35 M27.21 -13.01 C35.26 -11.63, 41.78 -9.09, 55.22 -7.21" stroke="#000000" stroke-width="1" fill="none"></path></g></g><g stroke-linecap="round"><g transform="translate(342.34375 243.63671875) rotate(0 29.09833833463489 -18.562834541844154)"><path d="M-0.75 1.04 C8.99 -5.26, 49.08 -30.14, 58.95 -36.64 M1.05 0.54 C10.68 -5.56, 49.02 -31.94, 58.49 -38.16" stroke="#000000" stroke-width="1" fill="none"></path></g><g transform="translate(342.34375 243.63671875) rotate(0 29.09833833463489 -18.562834541844154)"><path d="M42.58 -12.35 C48.52 -21.3, 52.23 -29.08, 57.84 -38.83 M40.06 -13.99 C46.11 -21.47, 50.9 -27.94, 58.38 -38.94" stroke="#000000" stroke-width="1" fill="none"></path></g><g transform="translate(342.34375 243.63671875) rotate(0 29.09833833463489 -18.562834541844154)"><path d="M31.11 -29.36 C41.1 -32.48, 48.7 -34.48, 57.84 -38.83 M28.59 -31 C37.85 -33.55, 45.91 -35.15, 58.38 -38.94" stroke="#000000" stroke-width="1" fill="none"></path></g></g><g stroke-linecap="round"><g transform="translate(528.5703125000001 194.48204003153205) rotate(0 76.27041738599536 -0.6717015349820485)"><path d="M-0.1 -1.19 C25.14 -1.21, 126.49 -0.41, 151.75 -0.17 M-1.61 0.8 C24 0.4, 128.23 -1.73, 154.15 -2.14" stroke="#000000" stroke-width="1" fill="none"></path></g><g transform="translate(528.5703125000001 194.48204003153205) rotate(0 76.27041738599536 -0.6717015349820485)"><path d="M124.16 7.63 C135.8 3.66, 145.74 1.07, 154.67 -3.8 M126.57 9.05 C136.42 5.55, 145.97 1, 154.29 -1.76" stroke="#000000" stroke-width="1" fill="none"></path></g><g transform="translate(528.5703125000001 194.48204003153205) rotate(0 76.27041738599536 -0.6717015349820485)"><path d="M123.79 -12.88 C135.54 -10.14, 145.6 -6, 154.67 -3.8 M126.19 -11.47 C136.17 -7.91, 145.85 -5.41, 154.29 -1.76" stroke="#000000" stroke-width="1" fill="none"></path></g></g><g transform="translate(551.44140625 172.0234375) rotate(0 47.5 11)"><text x="0" y="18" font-family="Virgil, Segoe UI Emoji" font-size="20px" fill="#000000" text-anchor="start" style="white-space: pre;" direction="ltr">5.投递消息</text></g></svg>